<svg width="800" height="800" viewBox="0 0 800 800" fill="none" xmlns="http://www.w3.org/2000/svg">
<path fill-rule="evenodd" clip-rule="evenodd" d="M580.483 479.407C570.577 474.447 521.88 450.49 512.8 447.177C503.723 443.873 497.12 442.223 490.513 452.137C483.91 462.05 464.927 484.363 459.15 490.977C453.373 497.583 447.593 498.413 437.69 493.453C427.783 488.497 395.867 478.037 358.037 444.29C328.59 418.023 308.71 385.59 302.933 375.673C297.154 365.757 302.314 360.397 307.274 355.457C311.732 351.02 317.182 343.887 322.133 338.103C327.086 332.32 328.736 328.186 332.038 321.58C335.34 314.966 333.69 309.184 331.211 304.227C328.736 299.269 308.926 250.512 300.672 230.678C292.632 211.365 284.466 213.981 278.386 213.675C272.615 213.388 266.004 213.327 259.402 213.327C252.799 213.327 242.067 215.806 232.986 225.72C223.909 235.636 198.32 259.602 198.32 308.353C198.32 357.11 233.811 404.21 238.765 410.82C243.719 417.433 308.61 517.48 407.977 560.387C431.607 570.593 450.057 576.687 464.443 581.25C488.17 588.79 509.763 587.727 526.833 585.173C545.863 582.333 585.437 561.213 593.69 538.08C601.943 514.937 601.943 495.107 599.467 490.977C596.99 486.843 590.387 484.363 580.483 479.407ZM399.75 726.177H399.62C340.493 726.153 282.506 710.27 231.917 680.25L219.885 673.107L95.1803 705.82L128.465 584.233L120.633 571.767C87.6503 519.307 70.2293 458.677 70.255 396.417C70.3277 214.752 218.138 66.9533 399.883 66.9533C487.89 66.9847 570.617 101.302 632.83 163.583C695.037 225.861 729.273 308.644 729.24 396.683C729.167 578.363 581.36 726.177 399.75 726.177ZM680.173 116.258C605.33 41.3267 505.797 0.042768 399.75 0C181.245 0 3.41003 177.824 3.32165 396.393C3.29314 466.263 21.5465 534.457 56.237 594.577L0 800L210.148 744.873C268.051 776.457 333.243 793.103 399.59 793.123H399.753C618.233 793.123 796.083 615.283 796.173 396.71C796.213 290.787 755.017 191.187 680.173 116.258Z" fill="white"/>
</svg>
